# xmcd
#
# Track frame offsets: 
#        150
#        11901
#        23857
#        39066
#        47036
#        60171
#        70091
#        82613
#        96515
#        110264
#        121933
#        134293
#        146356
#        155232
#        167081
#
# Disc length: 2339 seconds
#
# Revision: 0
# Processed by: cddbd v1.5.1PL0 Copyright (c) Steve Scherf et al.
# Submitted via: ExactAudioCopy v0.95b1
#
DISCID=b909210f
DTITLE=Bobby Helms - The Litle Darlin' Sounds Of Bobby Helms
DYEAR=2004
DGENRE=Country
TTITLE0=By The Time I Get To Phoenix
TTITLE1=My Special Angel
TTITLE2=I'm So Lonesome I could Cry
TTITLE3=I'm A Long Gone Daddy
TTITLE4=Your Cheatin' Heart
TTITLE5=It's Just Between You And me
TTITLE6=It's Such A Pretty World Today
TTITLE7=Touch My Heart
TTITLE8=Fraulein
TTITLE9=I Know One
TTITLE10=I'm Gonna Love The Devil Out Of You
TTITLE11=He Thought He'd Die Laughing
TTITLE12=Apt. No. 9
TTITLE13=Mary Goes Round
TTITLE14=Look What You've Done To My World
EXTD=
EXTT0=
EXTT1=
EXTT2=
EXTT3=
EXTT4=
EXTT5=
EXTT6=
EXTT7=
EXTT8=
EXTT9=
EXTT10=
EXTT11=
EXTT12=
EXTT13=
EXTT14=
PLAYORDER=
